PixeltronNow.ufo
<glyph name="bracketright" format="2">
  <advance width="600"/>
  <unicode hex="005D"/>
  <outline>
    <contour>
      <point x="300" y="0" type="line"/>
      <point x="400" y="0" type="line"/>
      <point x="400" y="100" type="line"/>
      <point x="400" y="200" type="line"/>
      <point x="400" y="300" type="line"/>
      <point x="400" y="400" type="line"/>
      <point x="400" y="500" type="line"/>
      <point x="400" y="600" type="line"/>
      <point x="400" y="700" type="line"/>
      <point x="300" y="700" type="line"/>
      <point x="200" y="700" type="line"/>
      <point x="200" y="600" type="line"/>
      <point x="300" y="600" type="line"/>
      <point x="300" y="500" type="line"/>
      <point x="300" y="400" type="line"/>
      <point x="300" y="300" type="line"/>
      <point x="300" y="200" type="line"/>
      <point x="300" y="100" type="line"/>
      <point x="200" y="100" type="line"/>
      <point x="200" y="0" type="line"/>
    </contour>
  </outline>
</glyph>
<glyph name="braceleft" format="2">
  <advance width="600"/>
  <unicode hex="007B"/>
  <outline>
    <contour>
      <point x="400" y="0" type="line"/>
      <point x="500" y="0" type="line"/>
      <point x="500" y="100" type="line"/>
      <point x="400" y="100" type="line"/>
      <point x="300" y="100" type="line"/>
      <point x="300" y="0" type="line"/>
    </contour>
    <contour>
      <point x="300" y="600" type="line"/>
      <point x="200" y="600" type="line"/>
      <point x="200" y="500" type="line"/>
      <point x="200" y="400" type="line"/>
      <point x="100" y="400" type="line"/>
      <point x="100" y="300" type="line"/>
      <point x="200" y="300" type="line"/>
      <point x="200" y="200" type="line"/>
      <point x="200" y="100" type="line"/>
      <point x="300" y="100" type="line"/>
      <point x="300" y="200" type="line"/>
      <point x="300" y="300" type="line"/>
      <point x="200" y="300" type="line"/>
      <point x="200" y="400" type="line"/>
      <point x="300" y="400" type="line"/>
      <point x="300" y="500" type="line"/>
    </contour>
    <contour>
      <point x="300" y="600" type="line"/>
      <point x="400" y="600" type="line"/>
      <point x="500" y="600" type="line"/>
      <point x="500" y="700" type="line"/>
      <point x="400" y="700" type="line"/>
      <point x="300" y="700" type="line"/>
    </contour>
  </outline>
</glyph>
<glyph name="degree" format="2">
  <advance width="600"/>
  <unicode hex="00B0"/>
  <outline>
    <contour>
      <point x="200" y="600" type="line"/>
      <point x="300" y="600" type="line"/>
      <point x="400" y="600" type="line"/>
      <point x="400" y="700" type="line"/>
      <point x="300" y="700" type="line"/>
      <point x="200" y="700" type="line"/>
    </contour>
    <contour>
      <point x="200" y="600" type="line"/>
      <point x="100" y="600" type="line"/>
      <point x="100" y="500" type="line"/>
      <point x="100" y="400" type="line"/>
      <point x="200" y="400" type="line"/>
      <point x="200" y="500" type="line"/>
    </contour>
    <contour>
      <point x="200" y="400" type="line"/>
      <point x="200" y="300" type="line"/>
      <point x="300" y="300" type="line"/>
      <point x="400" y="300" type="line"/>
      <point x="400" y="400" type="line"/>
      <point x="300" y="400" type="line"/>
    </contour>
    <contour>
      <point x="400" y="600" type="line"/>
      <point x="400" y="500" type="line"/>
      <point x="400" y="400" type="line"/>
      <point x="500" y="400" type="line"/>
      <point x="500" y="500" type="line"/>
      <point x="500" y="600" type="line"/>
    </contour>
  </outline>
</glyph>
<glyph name="acute" format="2">
  <advance width="600"/>
  <unicode hex="00B4"/>
  <outline>
    <contour>
      <point x="400" y="700" type="line"/>
      <point x="300" y="700" type="line"/>
      <point x="300" y="600" type="line"/>
      <point x="400" y="600" type="line"/>
    </contour>
    <contour>
      <point x="300" y="600" type="line"/>
      <point x="200" y="600" type="line"/>
      <point x="200" y="500" type="line"/>
      <point x="300" y="500" type="line"/>
    </contour>
  </outline>
</glyph>
<glyph name="periodcentered" format="2">
  <advance width="600"/>
  <unicode hex="00B7"/>
  <outline>
    <contour>
      <point x="300" y="201" type="line"/>
      <point x="400" y="201" type="line"/>
      <point x="400" y="301" type="line"/>
      <point x="400" y="401" type="line"/>
      <point x="300" y="401" type="line"/>
      <point x="200" y="401" type="line"/>
      <point x="200" y="301" type="line"/>
      <point x="200" y="201" type="line"/>
    </contour>
  </outline>
</glyph>
<glyph name="ae" format="2">
  <advance width="600"/>
  <unicode hex="00E6"/>
  <outline>
    <contour>
      <point x="245" y="0" type="line"/>
      <point x="255" y="0" type="line"/>
      <point x="355" y="0" type="line"/>
      <point x="455" y="0" type="line"/>
      <point x="455" y="100" type="line"/>
      <point x="355" y="100" type="line"/>
      <point x="355" y="200" type="line"/>
      <point x="455" y="200" type="line"/>
      <point x="555" y="200" type="line"/>
      <point x="555" y="300" type="line"/>
      <point x="555" y="400" type="line"/>
      <point x="455" y="400" type="line"/>
      <point x="455" y="500" type="line"/>
      <point x="355" y="500" type="line"/>
      <point x="355" y="400" type="line"/>
      <point x="455" y="400" type="line"/>
      <point x="455" y="300" type="line"/>
      <point x="355" y="300" type="line"/>
      <point x="355" y="400" type="line"/>
      <point x="255" y="400" type="line"/>
      <point x="255" y="300" type="line"/>
      <point x="245" y="300" type="line"/>
      <point x="155" y="300" type="line"/>
      <point x="145" y="300" type="line"/>
      <point x="145" y="200" type="line"/>
      <point x="155" y="200" type="line"/>
      <point x="245" y="200" type="line"/>
      <point x="255" y="200" type="line"/>
      <point x="255" y="100" type="line"/>
      <point x="245" y="100" type="line"/>
      <point x="155" y="100" type="line"/>
      <point x="145" y="100" type="line"/>
      <point x="145" y="0" type="line"/>
      <point x="155" y="0" type="line"/>
    </contour>
    <contour>
      <point x="145" y="100" type="line"/>
      <point x="145" y="200" type="line"/>
      <point x="45" y="200" type="line"/>
      <point x="45" y="100" type="line"/>
    </contour>
    <contour>
      <point x="255" y="400" type="line"/>
      <point x="255" y="500" type="line"/>
      <point x="245" y="500" type="line"/>
      <point x="155" y="500" type="line"/>
      <point x="145" y="500" type="line"/>
      <point x="145" y="400" type="line"/>
      <point x="155" y="400" type="line"/>
      <point x="245" y="400" type="line"/>
    </contour>
  </outline>
</glyph>
<glyph name="igrave" format="2">
  <advance width="600"/>
  <unicode hex="00EC"/>
  <outline>
    <contour>
      <point x="300" y="700" type="line"/>
      <point x="200" y="700" type="line"/>
      <point x="200" y="600" type="line"/>
      <point x="300" y="600" type="line"/>
    </contour>
    <contour>
      <point x="350" y="0" type="line"/>
      <point x="450" y="0" type="line"/>
      <point x="450" y="100" type="line"/>
      <point x="350" y="100" type="line"/>
      <point x="350" y="200" type="line"/>
      <point x="350" y="300" type="line"/>
      <point x="350" y="400" type="line"/>
      <point x="350" y="500" type="line"/>
      <point x="400" y="500" type="line"/>
      <point x="400" y="600" type="line"/>
      <point x="300" y="600" type="line"/>
      <point x="300" y="500" type="line"/>
      <point x="250" y="500" type="line"/>
      <point x="150" y="500" type="line"/>
      <point x="150" y="400" type="line"/>
      <point x="250" y="400" type="line"/>
      <point x="250" y="300" type="line"/>
      <point x="250" y="200" type="line"/>
      <point x="250" y="100" type="line"/>
      <point x="150" y="100" type="line"/>
      <point x="150" y="0" type="line"/>
      <point x="250" y="0" type="line"/>
    </contour>
  </outline>
</glyph>
<glyph name="otilde" format="2">
  <advance width="600"/>
  <unicode hex="00F5"/>
  <outline>
    <contour>
      <point x="500" y="700" type="line"/>
      <point x="400" y="700" type="line"/>
      <point x="400" y="600" type="line"/>
      <point x="500" y="600" type="line"/>
    </contour>
    <contour>
      <point x="300" y="700" type="line"/>
      <point x="200" y="700" type="line"/>
      <point x="200" y="600" type="line"/>
      <point x="300" y="600" type="line"/>
    </contour>
    <contour>
      <point x="150" y="100" type="line"/>
      <point x="150" y="200" type="line"/>
      <point x="150" y="300" type="line"/>
      <point x="150" y="400" type="line"/>
      <point x="50" y="400" type="line"/>
      <point x="50" y="300" type="line"/>
      <point x="50" y="200" type="line"/>
      <point x="50" y="100" type="line"/>
    </contour>
    <contour>
      <point x="150" y="100" type="line"/>
      <point x="150" y="0" type="line"/>
      <point x="250" y="0" type="line"/>
      <point x="350" y="0" type="line"/>
      <point x="450" y="0" type="line"/>
      <point x="450" y="100" type="line"/>
      <point x="350" y="100" type="line"/>
      <point x="250" y="100" type="line"/>
    </contour>
    <contour>
      <point x="300" y="600" type="line"/>
      <point x="300" y="500" type="line"/>
      <point x="250" y="500" type="line"/>
      <point x="200" y="500" type="line"/>
      <point x="200" y="600" type="line"/>
      <point x="100" y="600" type="line"/>
      <point x="100" y="500" type="line"/>
      <point x="150" y="500" type="line"/>
      <point x="150" y="400" type="line"/>
      <point x="250" y="400" type="line"/>
      <point x="350" y="400" type="line"/>
      <point x="450" y="400" type="line"/>
      <point x="450" y="500" type="line"/>
      <point x="400" y="500" type="line"/>
      <point x="400" y="600" type="line"/>
    </contour>
    <contour>
      <point x="450" y="100" type="line"/>
      <point x="550" y="100" type="line"/>
      <point x="550" y="200" type="line"/>
      <point x="550" y="300" type="line"/>
      <point x="550" y="400" type="line"/>
      <point x="450" y="400" type="line"/>
      <point x="450" y="300" type="line"/>
      <point x="450" y="200" type="line"/>
    </contour>
  </outline>
</glyph>
<glyph name="uni2011" format="2">
  <advance width="600"/>
  <unicode hex="2011"/>
  <outline>
    <contour>
      <point x="250" y="300" type="line"/>
      <point x="350" y="300" type="line"/>
      <point x="450" y="300" type="line"/>
      <point x="450" y="400" type="line"/>
      <point x="350" y="400" type="line"/>
      <point x="250" y="400" type="line"/>
      <point x="150" y="400" type="line"/>
      <point x="150" y="300" type="line"/>
    </contour>
  </outline>
</glyph>
<glyph name="second" format="2">
  <advance width="600"/>
  <unicode hex="2033"/>
  <outline>
    <contour>
      <point x="175" y="500" type="line"/>
      <point x="75" y="500" type="line"/>
      <point x="75" y="400" type="line"/>
      <point x="175" y="400" type="line"/>
    </contour>
    <contour>
      <point x="175" y="500" type="line"/>
      <point x="275" y="500" type="line"/>
      <point x="275" y="600" type="line"/>
      <point x="275" y="700" type="line"/>
      <point x="175" y="700" type="line"/>
      <point x="75" y="700" type="line"/>
      <point x="75" y="600" type="line"/>
      <point x="175" y="600" type="line"/>
    </contour>
    <contour>
      <point x="425" y="500" type="line"/>
      <point x="325" y="500" type="line"/>
      <point x="325" y="400" type="line"/>
      <point x="425" y="400" type="line"/>
    </contour>
    <contour>
      <point x="425" y="500" type="line"/>
      <point x="525" y="500" type="line"/>
      <point x="525" y="600" type="line"/>
      <point x="525" y="700" type="line"/>
      <point x="425" y="700" type="line"/>
      <point x="325" y="700" type="line"/>
      <point x="325" y="600" type="line"/>
      <point x="425" y="600" type="line"/>
    </contour>
  </outline>
</glyph>
<glyph name="uni2071" format="2">
  <advance width="600"/>
  <unicode hex="2071"/>
  <outline>
    <contour>
      <point x="350" y="700" type="line"/>
      <point x="250" y="700" type="line"/>
      <point x="250" y="600" type="line"/>
      <point x="350" y="600" type="line"/>
    </contour>
    <contour>
      <point x="350" y="500" type="line"/>
      <point x="250" y="500" type="line"/>
      <point x="250" y="400" type="line"/>
      <point x="250" y="300" type="line"/>
      <point x="250" y="200" type="line"/>
      <point x="350" y="200" type="line"/>
      <point x="350" y="300" type="line"/>
      <point x="350" y="400" type="line"/>
    </contour>
  </outline>
</glyph>
<glyph name="uni207A" format="2">
  <advance width="600"/>
  <unicode hex="207A"/>
  <outline>
    <contour>
      <point x="350" y="600" type="line"/>
      <point x="250" y="600" type="line"/>
      <point x="250" y="500" type="line"/>
      <point x="150" y="500" type="line"/>
      <point x="150" y="400" type="line"/>
      <point x="250" y="400" type="line"/>
      <point x="250" y="300" type="line"/>
      <point x="350" y="300" type="line"/>
      <point x="350" y="400" type="line"/>
      <point x="450" y="400" type="line"/>
      <point x="450" y="500" type="line"/>
      <point x="350" y="500" type="line"/>
    </contour>
  </outline>
</glyph>
<glyph name="uni207B" format="2">
  <advance width="600"/>
  <unicode hex="207B"/>
  <outline>
    <contour>
      <point x="350" y="400" type="line"/>
      <point x="450" y="400" type="line"/>
      <point x="450" y="500" type="line"/>
      <point x="350" y="500" type="line"/>
      <point x="250" y="500" type="line"/>
      <point x="150" y="500" type="line"/>
      <point x="150" y="400" type="line"/>
      <point x="250" y="400" type="line"/>
    </contour>
  </outline>
</glyph>
<glyph name="uni208B" format="2">
  <advance width="600"/>
  <unicode hex="208B"/>
  <outline>
    <contour>
      <point x="350" y="200" type="line"/>
      <point x="450" y="200" type="line"/>
      <point x="450" y="300" type="line"/>
      <point x="350" y="300" type="line"/>
      <point x="250" y="300" type="line"/>
      <point x="150" y="300" type="line"/>
      <point x="150" y="200" type="line"/>
      <point x="250" y="200" type="line"/>
    </contour>
  </outline>
</glyph>
<glyph name="uni2152" format="2">
  <advance width="600"/>
  <unicode hex="2152"/>
  <outline>
    <contour>
      <point x="350" y="1000" type="line"/>
      <point x="250" y="1000" type="line"/>
      <point x="250" y="900" type="line"/>
      <point x="150" y="900" type="line"/>
      <point x="150" y="800" type="line"/>
      <point x="250" y="800" type="line"/>
      <point x="250" y="700" type="line"/>
      <point x="250" y="600" type="line"/>
      <point x="150" y="600" type="line"/>
      <point x="150" y="500" type="line"/>
      <point x="250" y="500" type="line"/>
      <point x="350" y="500" type="line"/>
      <point x="450" y="500" type="line"/>
      <point x="450" y="600" type="line"/>
      <point x="350" y="600" type="line"/>
      <point x="350" y="700" type="line"/>
      <point x="350" y="800" type="line"/>
      <point x="350" y="900" type="line"/>
    </contour>
    <contour>
      <point x="180" y="200" type="line"/>
      <point x="80" y="200" type="line"/>
      <point x="80" y="100" type="line"/>
      <point x="-20" y="100" type="line"/>
      <point x="-20" y="0" type="line"/>
      <point x="80" y="0" type="line"/>
      <point x="80" y="-100" type="line"/>
      <point x="80" y="-200" type="line"/>
      <point x="-20" y="-200" type="line"/>
      <point x="-20" y="-300" type="line"/>
      <point x="80" y="-300" type="line"/>
      <point x="180" y="-300" type="line"/>
      <point x="280" y="-300" type="line"/>
      <point x="280" y="-200" type="line"/>
      <point x="180" y="-200" type="line"/>
      <point x="180" y="-100" type="line"/>
      <point x="180" y="0" type="line"/>
      <point x="180" y="100" type="line"/>
    </contour>
    <contour>
      <point x="520" y="200" type="line"/>
      <point x="420" y="200" type="line"/>
      <point x="420" y="100" type="line"/>
      <point x="520" y="100" type="line"/>
    </contour>
    <contour>
      <point x="150" y="300" type="line"/>
      <point x="250" y="300" type="line"/>
      <point x="350" y="300" type="line"/>
      <point x="450" y="300" type="line"/>
      <point x="630" y="300" type="line"/>
      <point x="630" y="400" type="line"/>
      <point x="450" y="400" type="line"/>
      <point x="350" y="400" type="line"/>
      <point x="250" y="400" type="line"/>
      <point x="150" y="400" type="line"/>
      <point x="-30" y="400" type="line"/>
      <point x="-30" y="300" type="line"/>
    </contour>
    <contour>
      <point x="520" y="100" type="line"/>
      <point x="520" y="0" type="line"/>
      <point x="520" y="-100" type="line"/>
      <point x="520" y="-200" type="line"/>
      <point x="620" y="-200" type="line"/>
      <point x="620" y="-100" type="line"/>
      <point x="620" y="0" type="line"/>
      <point x="620" y="100" type="line"/>
    </contour>
    <contour>
      <point x="520" y="-200" type="line"/>
      <point x="420" y="-200" type="line"/>
      <point x="420" y="-100" type="line"/>
      <point x="420" y="0" type="line"/>
      <point x="420" y="100" type="line"/>
      <point x="320" y="100" type="line"/>
      <point x="320" y="0" type="line"/>
      <point x="320" y="-100" type="line"/>
      <point x="320" y="-200" type="line"/>
      <point x="420" y="-200" type="line"/>
      <point x="420" y="-300" type="line"/>
      <point x="520" y="-300" type="line"/>
    </contour>
  </outline>
</glyph>
<glyph name="uni21B1" format="2">
  <advance width="600"/>
  <unicode hex="21B1"/>
  <outline>
    <contour>
      <point x="350" y="600" type="line"/>
      <point x="250" y="600" type="line"/>
      <point x="250" y="500" type="line"/>
      <point x="350" y="500" type="line"/>
    </contour>
  </outline>
</glyph>
<glyph name="uni21B2" format="2">
  <advance width="600"/>
  <unicode hex="21B2"/>
  <outline>
    <contour>
      <point x="450" y="1000" type="line"/>
      <point x="350" y="1000" type="line"/>
      <point x="350" y="900" type="line"/>
      <point x="450" y="900" type="line"/>
    </contour>
    <contour>
      <point x="550" y="700" type="line"/>
      <point x="450" y="700" type="line"/>
      <point x="450" y="600" type="line"/>
      <point x="550" y="600" type="line"/>
    </contour>
    <contour>
      <point x="250" y="1000" type="line"/>
      <point x="150" y="1000" type="line"/>
      <point x="150" y="900" type="line"/>
      <point x="50" y="900" type="line"/>
      <point x="50" y="800" type="line"/>
      <point x="150" y="800" type="line"/>
      <point x="150" y="900" type="line"/>
      <point x="250" y="900" type="line"/>
      <point x="250" y="800" type="line"/>
      <point x="250" y="700" type="line"/>
      <point x="250" y="600" type="line"/>
      <point x="150" y="600" type="line"/>
      <point x="150" y="500" type="line"/>
      <point x="250" y="500" type="line"/>
      <point x="250" y="600" type="line"/>
      <point x="350" y="600" type="line"/>
      <point x="350" y="500" type="line"/>
      <point x="450" y="500" type="line"/>
      <point x="450" y="600" type="line"/>
      <point x="350" y="600" type="line"/>
      <point x="350" y="700" type="line"/>
      <point x="350" y="800" type="line"/>
      <point x="350" y="900" type="line"/>
      <point x="250" y="900" type="line"/>
    </contour>
  </outline>
</glyph>
<glyph name="uni21B4" format="2">
  <advance width="600"/>
  <unicode hex="21B4"/>
  <outline>
    <contour>
      <point x="300" y="900" type="line"/>
      <point x="200" y="900" type="line"/>
      <point x="100" y="900" type="line"/>
      <point x="100" y="800" type="line"/>
      <point x="200" y="800" type="line"/>
      <point x="300" y="800" type="line"/>
      <point x="300" y="700" type="line"/>
      <point x="200" y="700" type="line"/>
      <point x="200" y="600" type="line"/>
      <point x="100" y="600" type="line"/>
      <point x="100" y="500" type="line"/>
      <point x="200" y="500" type="line"/>
      <point x="300" y="500" type="line"/>
      <point x="400" y="500" type="line"/>
      <point x="500" y="500" type="line"/>
      <point x="500" y="600" type="line"/>
      <point x="400" y="600" type="line"/>
      <point x="300" y="600" type="line"/>
      <point x="300" y="700" type="line"/>
      <point x="400" y="700" type="line"/>
      <point x="400" y="800" type="line"/>
      <point x="500" y="800" type="line"/>
      <point x="500" y="900" type="line"/>
      <point x="400" y="900" type="line"/>
    </contour>
  </outline>
</glyph>
<glyph name="carriagereturn" format="2">
  <advance width="600"/>
  <unicode hex="21B5"/>
  <outline>
    <contour>
      <point x="300" y="1000" type="line"/>
      <point x="200" y="1000" type="line"/>
      <point x="200" y="900" type="line"/>
      <point x="100" y="900" type="line"/>
      <point x="100" y="800" type="line"/>
      <point x="200" y="800" type="line"/>
      <point x="200" y="700" type="line"/>
      <point x="200" y="600" type="line"/>
      <point x="300" y="600" type="line"/>
      <point x="300" y="700" type="line"/>
      <point x="300" y="800" type="line"/>
      <point x="400" y="800" type="line"/>
      <point x="400" y="900" type="line"/>
      <point x="300" y="900" type="line"/>
    </contour>
    <contour>
      <point x="500" y="700" type="line"/>
      <point x="400" y="700" type="line"/>
      <point x="400" y="600" type="line"/>
      <point x="500" y="600" type="line"/>
    </contour>
    <contour>
      <point x="300" y="600" type="line"/>
      <point x="300" y="500" type="line"/>
      <point x="400" y="500" type="line"/>
      <point x="400" y="600" type="line"/>
    </contour>
  </outline>
</glyph>
<glyph name="uni2219" format="2">
  <advance width="600"/>
  <unicode hex="2219"/>
  <outline>
    <contour>
      <point x="300" y="221" type="line"/>
      <point x="400" y="221" type="line"/>
      <point x="400" y="321" type="line"/>
      <point x="400" y="421" type="line"/>
      <point x="300" y="421" type="line"/>
      <point x="200" y="421" type="line"/>
      <point x="200" y="321" type="line"/>
      <point x="200" y="221" type="line"/>
    </contour>
  </outline>
</glyph>
<glyph name="uni2235" format="2">
  <advance width="600"/>
  <unicode hex="2235"/>
  <outline>
    <contour>
      <point x="150" y="300" type="line"/>
      <point x="250" y="300" type="line"/>
      <point x="250" y="400" type="line"/>
      <point x="250" y="500" type="line"/>
      <point x="150" y="500" type="line"/>
      <point x="50" y="500" type="line"/>
      <point x="50" y="400" type="line"/>
      <point x="50" y="300" type="line"/>
    </contour>
    <contour>
      <point x="450" y="300" type="line"/>
      <point x="550" y="300" type="line"/>
      <point x="550" y="400" type="line"/>
      <point x="550" y="500" type="line"/>
      <point x="450" y="500" type="line"/>
      <point x="350" y="500" type="line"/>
      <point x="350" y="400" type="line"/>
      <point x="350" y="300" type="line"/>
    </contour>
    <contour>
      <point x="300" y="0" type="line"/>
      <point x="400" y="0" type="line"/>
      <point x="400" y="100" type="line"/>
      <point x="400" y="200" type="line"/>
      <point x="300" y="200" type="line"/>
      <point x="200" y="200" type="line"/>
      <point x="200" y="100" type="line"/>
      <point x="200" y="0" type="line"/>
    </contour>
  </outline>
</glyph>
